/* XPM */
static xpm_row_t bb10_xpm[] = {
"43 72 216 2",
"  	c #FF0000",
". 	c #102B71",
"+ 	c #102A72",
"@ 	c #112C76",
"# 	c #122D78",
"$ 	c #13307B",
"% 	c #13307D",
"& 	c #14317F",
"* 	c #15337F",
"= 	c #15317D",
"- 	c #15327B",
"; 	c #143077",
"> 	c #0F2A70",
", 	c #112C73",
"' 	c #122E78",
") 	c #132F7B",
"! 	c #13307E",
"~ 	c #143181",
"{ 	c #143183",
"] 	c #153386",
"^ 	c #17378A",
"/ 	c #18378D",
"( 	c #193B92",
"_ 	c #1A3B94",
": 	c #1B3D94",
"< 	c #1A3C92",
"[ 	c #19398C",
"} 	c #173583",
"| 	c #143079",
"1 	c #102A6F",
"2 	c #102C74",
"3 	c #112E79",
"4 	c #12307E",
"5 	c #143281",
"6 	c #153384",
"7 	c #153485",
"8 	c #153487",
"9 	c #18388E",
"0 	c #1A3B92",
"a 	c #1B3C96",
"b 	c #1C3F9A",
"c 	c #1D409C",
"d 	c #1D409D",
"e 	c #1E409C",
"f 	c #1D3F99",
"g 	c #1A3C93",
"h 	c #183989",
"i 	c #15317A",
"j 	c #0F2A71",
"k 	c #102B74",
"l 	c #112D7A",
"m 	c #13317F",
"n 	c #133182",
"o 	c #153483",
"p 	c #163689",
"q 	c #17378C",
"r 	c #193A90",
"s 	c #1B3D98",
"t 	c #1C3F9B",
"u 	c #1E419E",
"v 	c #1E409E",
"w 	c #1E419F",
"x 	c #1D3F9C",
"y 	c #1A3A93",
"z 	c #173484",
"A 	c #132D75",
"B 	c #0F2A72",
"C 	c #102B75",
"D 	c #112D79",
"E 	c #122F7D",
"F 	c #143282",
"G 	c #18398F",
"H 	c #1C3E99",
"I 	c #1D3F9B",
"J 	c #1D409E",
"K 	c #1C3D98",
"L 	c #19398E",
"M 	c #15317C",
"N 	c #0F2A73",
"O 	c #0F2A74",
"P 	c #102B76",
"Q 	c #102C79",
"R 	c #112D7C",
"S 	c #133080",
"T 	c #143382",
"U 	c #143384",
"V 	c #163586",
"W 	c #163488",
"X 	c #193A92",
"Y 	c #1A3B95",
"Z 	c #1C3E98",
"` 	c #1E409D",
" .	c #1B3C93",
"..	c #163480",
"+.	c #122C70",
"@.	c #0E2973",
"#.	c #122F7C",
"$.	c #143283",
"%.	c #163588",
"&.	c #17368B",
"*.	c #1C3E9A",
"=.	c #1D3F9D",
"-.	c #1B3D95",
";.	c #163380",
">.	c #153587",
",.	c #193991",
"'.	c #1A3C95",
").	c #1B3B93",
"!.	c #16327D",
"~.	c #0E2970",
"{.	c #0E2972",
"].	c #0F2B76",
"^.	c #1A3C94",
"/.	c #1B3D97",
"(.	c #1A3A90",
"_.	c #133077",
":.	c #0F2A76",
"<.	c #133281",
"[.	c #153588",
"}.	c #18388C",
"|.	c #193A91",
"1.	c #1D3E9B",
"2.	c #18388A",
"3.	c #132E72",
"4.	c #102C77",
"5.	c #112E7A",
"6.	c #122E7D",
"7.	c #153488",
"8.	c #1B3D96",
"9.	c #1D3F9A",
"0.	c #173481",
"a.	c #1A3B90",
"b.	c #132E75",
"c.	c #0F2B75",
"d.	c #112E7B",
"e.	c #163688",
"f.	c #18388D",
"g.	c #0F2A75",
"h.	c #102C78",
"i.	c #112D7B",
"j.	c #0E2A73",
"k.	c #112E7C",
"l.	c #122F7F",
"m.	c #143284",
"n.	c #18398E",
"o.	c #1C3E94",
"p.	c #0F2B74",
"q.	c #173789",
"r.	c #1A3B93",
"s.	c #1D409A",
"t.	c #16327E",
"u.	c #122E7C",
"v.	c #18388F",
"w.	c #173585",
"x.	c #17368C",
"y.	c #19388B",
"z.	c #133181",
"A.	c #153284",
"B.	c #18378C",
"C.	c #1A3A8E",
"D.	c #193990",
"E.	c #132D71",
"F.	c #122D71",
"G.	c #143285",
"H.	c #17378D",
"I.	c #1A3B8F",
"J.	c #0F2970",
"K.	c #163687",
"L.	c #17368A",
"M.	c #19398B",
"N.	c #0F296F",
"O.	c #1B3C95",
"P.	c #183685",
"Q.	c #1B3C97",
"R.	c #15327D",
"S.	c #142F75",
"T.	c #1E419D",
"U.	c #19398A",
"V.	c #17378B",
"W.	c #14307B",
"X.	c #1A3C90",
"Y.	c #102C76",
"Z.	c #1C3D97",
"`.	c #0F2B73",
" +	c #183786",
".+	c #143485",
"++	c #18388B",
"@+	c #112B6F",
"#+	c #133180",
"$+	c #0F2971",
"%+	c #153385",
"&+	c #1E419B",
"*+	c #19398F",
"=+	c #142E76",
"-+	c #163589",
";+	c #183889",
">+	c #132D73",
",+	c #1B3C94",
"'+	c #19398D",
")+	c #16327F",
"!+	c #122D72",
"~+	c #143280",
"{+	c #193A8F",
"]+	c #132F76",
"^+	c #153586",
"/+	c #163383",
"(+	c #14327D",
"_+	c #122D73",
":+	c #112D77",
"<+	c #112D78",
"[+	c #122E7A",
"}+	c #122F7A",
"|+	c #112E77",
"1+	c #112C74",
"2+	c #112B70",
"3+	c #333333",
"                                                                                      ",
"                                                                                      ",
"                                                                                      ",
"                                                                                      ",
"                                                                                      ",
"                                                                                      ",
"                                                                                      ",
"                                                                                      ",
"                                                                                      ",
"                                                                                      ",
"                                                                                      ",
"                                                                                      ",
"                                                                                      ",
"                                                                                      ",
"                                                                                      ",
"                                                                                      ",
"                                                                                      ",
"                              . + @ # $ % & * = - ;                                   ",
"                        > , ' ) ! ~ { ] ^ / ( _ : < [ } |                             ",
"                    1 2 3 4 5 6 6 7 8 ^ 9 0 a b c d e f g h i                         ",
"                  j k l m n o 6 7 8 p q r _ s t d u v w u x y z A                     ",
"                B C D E m F { 7 8 p q G 0 a H I d u w w w w J K L M                   ",
"              N O P Q R S T U V W q G X Y Z t d J u w w w w w w `  ...+.              ",
"            B @.O P D #.m $.7 %.&.G X Y s *.x =.u w w w w w w w w u -.;.              ",
"          j @.@.O P D E m $.>.^ 9 ,.'.s *.c =.u w w w w w w w w w w ` ).!.            ",
"        ~.{.{.@.O ].D E S 6 8 q r ^./.b I d u u w w w w w w w w w w w d (._.          ",
"        N {.{.@.O :.Q E <.6 [.}.|.'.Z t d J v w w w w w w w w w w w w w 1.2.3.        ",
"      B @.{.{.@.O 4.5.6.S U 7.}.X 8.H I d u w w w w w w w w w w w w w w w 9.0.        ",
"      N {.{.{.@.O 4.l 4 <.U %.}.X 8.H c =.v w w w w w w w w w w w w w w w w a.b.      ",
"    j @.{.{.{.@.c.4.d.4 ~ U e.f.X 8.b c J u w w w w w w w w w w w w w w w w f 0.      ",
"    B {.{.{.{.@.g.h.i.4 T U e.f.X 8.b c J v w w w w w w w w w w w w w w w w u [       ",
"    N {.{.{.j.@.g.h.k.l.T m.%.n.X a *.x J v w w w w w w w w w w w w w w w w v o.;     ",
"  > N {.{.{.j.p.].Q k.S F ] q.9 r./.*.x J v w w w w w w w w w w w w w w w w w s.t.    ",
"  j @.{.{.{.@.O ].D u.S { 8 &.v._ s t d u w w w w w w w w w w w w w w w w w w c w.    ",
"  B j.{.{.{.@.O ].D E S m.%.x.|.'.Z I d u w w w w w w w w w w w w w w w w w w u y.    ",
"  B @.{.{.{.@.O ].D E z.A.p B.|.'.Z I d u v w w w w w w w w w w w w w w w w w u C.    ",
"  B @.{.{.{.@.p.].D E <.A.7.x.D._ s *.d u v w w w w w w w w w w w w w w w w w w a.E.  ",
"  B @.{.{.{.{.p.g.h.u.m $.] ^ G r.a b c =.u w w w w w w w w w w w w w w w w w w (.F.  ",
"  j @.{.{.{.{.@.c.h.i.m F G.%.H.|.'.Z I d u w w w w w w w w w w w w w w w w w w I.    ",
"  J.@.{.{.{.{.@.O 4.l E <.U K.L.9 r./.*.x J v w w w w w w w w w w w w w w w w u M.    ",
"  N.N {.{.{.{.@.p.].Q k.m T m.e.q |.O.H I =.u w w w w w w w w w w w w w w w w d P.    ",
"    N {.{.{.{.{.@.c.4.d.4 S $.V L.v.^.Q.t d J u w w w w w w w w w w w w w w w f R.    ",
"    B @.{.{.{.{.@.O ].Q R l.T G.p 9 X a H I d u v w w w w w w w w w w w w w w o.S.    ",
"    J.N {.{.{.{.{.@.g.h.d.! ~ U %.B.|.'.s *.c =.u w w w w w w w w w w w w w T.U.      ",
"      N @.{.{.{.{.@.O :.Q u.S $.>.V.v.r.8.Z t x =.u w w w w w w w w w w w w Z W.      ",
"      j N {.{.{.{.{.@.g.h.i.4 n 7 W }.r ^.a H I x =.u v w w w w w w w w w w X.        ",
"        B {.{.{.{.{.@.O Y.D u.S { >.^ f.|.^./.H I d =.u w w w w w w w w w Z.W.        ",
"          `.{.{.{.{.{.@.c.h.l 4 z.U 8 ^ n.|._ /.H I d J u v w w w w w w I  +          ",
"          J.@.{.{.{.{.@.O ].Q #.m ~ .+e.L.9 |._ /.b I d J u u w w w w J ++@+          ",
"            j @.{.{.{.{.@.O 4.D u.#+T G.e.V.9 ,.'.Q.*.I d =.u u u u T.a.b.            ",
"              $+N {.{.{.@.p.g.h.d.4 <.{ %+e.V.G X Y s b I c d d =.&+*+=+              ",
"                j N {.{.{.@.O P D u.m ~ U ] -+q v.r.O.Q.H *.*.9.Z.;+>+                ",
"                  j `.@.@.@.p.g.h.d.4 S F m.K.^ f.D.r.'.8.8.,+'+)+!+                  ",
"                      $+N N @.O P 5.u.m ~+$.7 e.q 9 *+|.{+L.~+]+                      ",
"                          $+N O g.h.l E m n U ^+e.p ^+/+(+_+                          ",
"                              j B N C :+<+[+[+) }+|+1+2+                              ",
"                                                                                      ",
"                                                                                      ",
"                                                                                      ",
"                                                                                      ",
"                                                                                      ",
"                                                                                      ",
"                3+3+3+3+3+3+3+3+3+3+3+3+3+3+3+3+3+3+3+3+3+3+3+3+3+3+3+                ",
"            3+3+3+3+3+3+3+3+3+3+3+3+3+3+3+3+3+3+3+3+3+3+3+3+3+3+3+3+3+3+3+            ",
"            3+3+3+3+3+3+3+3+3+3+3+3+3+3+3+3+3+3+3+3+3+3+3+3+3+3+3+3+3+3+3+            ",
"            3+3+3+3+3+3+3+3+3+3+3+3+3+3+3+3+3+3+3+3+3+3+3+3+3+3+3+3+3+3+3+            ",
"            3+3+3+3+3+3+3+3+3+3+3+3+3+3+3+3+3+3+3+3+3+3+3+3+3+3+3+3+3+3+3+            ",
"                3+3+3+3+3+3+3+3+3+3+3+3+3+3+3+3+3+3+3+3+3+3+3+3+3+3+3+                ",
"                        3+3+3+3+3+3+3+3+3+3+3+3+3+3+3+3+3+3+3+                        ",
"                                                                                      ",
"                                                                                      ",
"                                                                                      "};
