/* XPM */
static xpm_row_t cursor_secondary_xpm[] = {
"25 25 48 1",
" 	c #FF0000",
".	c #595959",
"+	c #191900",
"@	c #202011",
"#	c #DEDEDE",
"$	c #6C6C6C",
"%	c #141400",
"&	c #202010",
"*	c #D8D8D8",
"=	c #FBFBFB",
"-	c #181800",
";	c #5A5A5A",
">	c #FFFFFF",
",	c #F7F7F7",
"'	c #646464",
")	c #161600",
"!	c #E1E1E1",
"~	c #FDFDFD",
"{	c #848483",
"]	c #0E0E00",
"^	c #212111",
"/	c #8B8B8B",
"(	c #6D6D6D",
"_	c #121200",
":	c #757575",
"<	c #F5F5F5",
"[	c #FEFEFE",
"}	c #878787",
"|	c #171700",
"1	c #DFDFDF",
"2	c #5B5B5B",
"3	c #0B0B00",
"4	c #D6D6D6",
"5	c #F6F6F6",
"6	c #434343",
"7	c #7F7F7F",
"8	c #C6C6C6",
"9	c #EFEFEF",
"0	c #B4B4B4",
"a	c #959595",
"b	c #FCFCFC",
"c	c #5C5C5C",
"d	c #F9F9F9",
"e	c #EAEAEA",
"f	c #DADADA",
"g	c #999999",
"h	c #E4E4E4",
"i	c #464646",
"                         ",
"                         ",
"                         ",
"                         ",
"                         ",
"     .+@                 ",
"     #$%&&&              ",
"     *=$-@&&&&&          ",
"     ;>,')&&&&&&&        ",
"      !>~{]^&&&&&&&&&    ",
"      />>>(_&&&&&&&&     ",
"      :<>>[}|^&&         ",
"       1>>>>23           ",
"       4>>>56            ",
"       7>>>8             ",
"        9>[0             ",
"        a>b              ",
"        cde              ",
"         fg              ",
"         hi              ",
"                         ",
"                         ",
"                         ",
"                         ",
"                         "};
