/* XPM */
static xpm_row_t I_xpm[] = {
"52 72 2 1",
" 	g #FF0000",
".	g #000000",
"                                                    ",
"                                                    ",
"                                                    ",
"                                                    ",
"                                                    ",
"                                                    ",
"                                                    ",
"                                                    ",
"                     ..                             ",
"    ....................                            ",
"    ....................                            ",
"    ....................                            ",
"    ...................                             ",
"          .......                                   ",
"          .......                                   ",
"          .......                                   ",
"          .......                                   ",
"          .......                                   ",
"          .......                                   ",
"          .......                                   ",
"         .........                                  ",
"         .........                                  ",
"         .........                                  ",
"         .........                                  ",
"         .........                                  ",
"         .........                                  ",
"         .........                                  ",
"         .........                                  ",
"         .........                                  ",
"         .........                                  ",
"         .........                                  ",
"         .........                                  ",
"         .........                                  ",
"         .........                                  ",
"         .........                                  ",
"         .........                                  ",
"         .........                                  ",
"         .........                                  ",
"         .........                                  ",
"         .........                                  ",
"         .........                                  ",
"         .........                                  ",
"          ........                                  ",
"          ........                                  ",
"          .......                                   ",
"          .......                                   ",
"          .......                                   ",
"          .......                                   ",
"          .......  .......                          ",
"   .......................                          ",
"   ........................                         ",
"   .......................                          ",
"    ....................                            ",
"             ..                                     ",
"                                                    ",
"                                                    ",
"                                                    ",
"                                                    ",
"                                                    ",
"                                                    ",
"                                                    ",
"                                                    ",
"                                                    ",
"                                                    ",
"                                                    ",
"                                                    ",
"                                                    ",
"                                                    ",
"                                                    ",
"                                                    ",
"                                                    ",
"                                                    "};
