/* XPM */
static xpm_row_t wasd_pad_white_xpm[] = {
"120 120 87 1",
" 	c #FF0000",
".	c #B9B9B9",
"+	c #DEDEDE",
"@	c #F5F5F5",
"#	c #FBFBFB",
"$	c #DFDFDF",
"%	c #B8B8B8",
"&	c #C8C8C8",
"*	c #FFFFFF",
"=	c #C5C5C5",
"-	c #E7E7E7",
";	c #E4E4E4",
">	c #E9E9E9",
",	c #F1F1F1",
"'	c #C9C9C9",
")	c #F3F3F3",
"!	c #B7B7B7",
"~	c #B0B0B0",
"{	c #B3B3B3",
"]	c #E6E6E6",
"^	c #A6A6A6",
"/	c #CDCDCD",
"(	c #E8E8E8",
"_	c #FCFCFC",
":	c #FAFAFA",
"<	c #DDDDDD",
"[	c #B4B4B4",
"}	c #B5B5B5",
"|	c #DCDCDC",
"1	c #F4F4F4",
"2	c #CBCBCB",
"3	c #A5A5A5",
"4	c #AFAFAF",
"5	c #F6F6F6",
"6	c #CECECE",
"7	c #D1D1D1",
"8	c #ADADAD",
"9	c #DBDBDB",
"0	c #A8A8A8",
"a	c #A7A7A7",
"b	c #F8F8F8",
"c	c #B6B6B6",
"d	c #EFEFEF",
"e	c #E0E0E0",
"f	c #999999",
"g	c #BFBFBF",
"h	c #FEFEFE",
"i	c #D4D4D4",
"j	c #D2D2D2",
"k	c #D8D8D8",
"l	c #B2B2B2",
"m	c #A0A0A0",
"n	c #E1E1E1",
"o	c #E5E5E5",
"p	c #B1B1B1",
"q	c #AEAEAE",
"r	c #EBEBEB",
"s	c #F7F7F7",
"t	c #EEEEEE",
"u	c #F9F9F9",
"v	c #A4A4A4",
"w	c #BBBBBB",
"x	c #F0F0F0",
"y	c #9B9B9B",
"z	c #C7C7C7",
"A	c #A9A9A9",
"B	c #C3C3C3",
"C	c #A2A2A2",
"D	c #EAEAEA",
"E	c #E3E3E3",
"F	c #F2F2F2",
"G	c #969696",
"H	c #D9D9D9",
"I	c #D6D6D6",
"J	c #AAAAAA",
"K	c #A1A1A1",
"L	c #D3D3D3",
"M	c #ABABAB",
"N	c #D7D7D7",
"O	c #E2E2E2",
"P	c #C2C2C2",
"Q	c #BDBDBD",
"R	c #CCCCCC",
"S	c #DADADA",
"T	c #C4C4C4",
"U	c #9D9D9D",
"V	c #A3A3A3",
"                                                         .+@#$%                                                         ",
"                                                       &********=                                                       ",
"                                                      -**********;                                                      ",
"                                                     >************-                                                     ",
"                                                    >*****,&')*****-                                                    ",
"                                                   >*****!    .*****-                                                   ",
"                                                  >*****~      {*****-                                                  ",
"                                                 >*****~        {*****-                                                 ",
"                                                >*****~          {*****-                                                ",
"                                               >*****~            {*****-                                               ",
"                                              >*****~              {*****]                                              ",
"                                             >*****~                {*****]                                             ",
"                                            >*****~                  {*****]                                            ",
"                                           >*****~                    {*****]                                           ",
"                             ^/(_:<[      >*****~                      {*****]      }|1_(23                             ",
"                           45********6   >*****~                        {*****]   7********@8                           ",
"                          9***********:0>*****~                          {*****]ab******cd***7                          ",
"                         ;*******************~                            {************d  d***e                         ",
"                        ;*******************~                              {***********f   d***e                        ",
"                       ;*******************~                                {*********'    g****e                       ",
"                      ;*******************_                                  h********    f******e                      ",
"                     ;**di*****************j                                k********l    d*******e                     ",
"                    ;**d  mn****************                                ********#    g****dd***e                    ",
"                   o**d     md**************p                              .********3   m****g  d***n                   ",
"                  o**d        q,************k                              <*******o    ,**nf    d***n                  ",
"                 o***'          7h**********r                              )******s    t**q      m****n                 ",
"                |*****    '       |*********u                              *******a   7*#v       i*****k                ",
"               l******'   q*w       c*******(                              x*****i   y*7        q*******8               ",
"               :*******f   ,*h7       g*****z                              6*****    <3    e    *****d**s               ",
"              A********n   B**@         '***m                              a****q        zhw   i***n  d**C              ",
"              6*********m   #@          i**5                                u**d        t*o   {***q    d*&              ",
"              D*********o   y    ddq   i***8                                ~**n      q**h   3**n      m*E              ",
"              _**********z      d***dmi***/                                  k**d    i***^   #*/      c**b              ",
"              #**********h     d*********<                                    n**d q****g   |h3     qd***F              ",
"              +***********7   f*********<                                      n*******d   4o     Gn*****H              ",
"              %***********h    '*******<                                        n******f   m     o*******}              ",
"               ************q    ******<                                          n****g        7h********               ",
"               I************    c****<                                            n***       fd*********7               ",
"                u***********c   i***<                                              n**d     '**********@                ",
"                J************  i***<                                                n**d  q************K                ",
"                (************'i***<                                                  e**nd*************]                ",
"               (*****************<                                                    e*****************]               ",
"              (*****#***********6                                                      k***********_*****]              ",
"             (*****p L********sM                                                        4b********7 [*****]             ",
"            (*****p    ckrs;=C                                                            ^';brN}    [*****]            ",
"           (*****p                                                                                    [*****]           ",
"          (*****p                                                                                      [*****]          ",
"         (*****p                                                                                        [*****]         ",
"        (*****p                                                                                          [*****]        ",
"       (*****p                                                                                            [*****]       ",
"      (*****p                                                                                              [*****]      ",
"     (*****p                                                                                                [*****]     ",
"    (*****p                                                                                                  [*****]    ",
"   (*****p                                                                                                    [*****]   ",
"  O*****p                                                                                                      [*****O  ",
" B*****p                                                                                                        [*****P ",
" *****p                                                                                                          [***** ",
"[****!                                                                                                            Q****l",
"$***F                                                                                                              5***H",
"#***&                                                                                                              /***d",
"5***&                                                                                                              R***d",
"<***F                                                                                                              5***S",
"[****!                                                                                                            Q****l",
" *****p                                                                                                          [***** ",
" B*****p                                                                                                        [*****T ",
"  E*****p                                                                                                      [*****E  ",
"   (*****p                                                                                                    [*****]   ",
"    (*****p                                                                                                  [*****]    ",
"     (*****p                                                                                                [*****]     ",
"      (*****p                                                                                              [*****]      ",
"       (*****p                                                                                            [*****]       ",
"        (*****p                                                                                          [*****]        ",
"         (*****p                                                                                        [*****]         ",
"          (*****p                                                                                      [*****]          ",
"           (*****p     }|1_(23                                                            ^/(_:<[     [*****]           ",
"            (*****p  7********@8                                                        45********6  [*****]            ",
"             (*****'b***********7                                                      9***********:2*****]             ",
"              (******************e                                                    ;******************]              ",
"               (******************e                                                  ;******************]               ",
"                ,******************e                                                ;******************d                ",
"                _*******************e                                              ;*****iqqcn*********:                ",
"               k*********************e                                            ;****c       ]********j               ",
"               **************if   qd**e                                          ;***df         |********               ",
"              .*************'       i**n                                        o***d            |*******p              ",
"              <*************         i**n                                      o***d    mg'!U     ,******k              ",
"              )************t    am    n**n                                    o***d    '*****|     ******r              ",
"              *************t   q**i    ***k                                  |***d    i*******|    '*****u              ",
"              x************t   q***q   '***8                                l****m    *********%   m*****(              ",
"              6************h    ****  q****s                                :****m    m********;    *****z              ",
"              a********'****w   |***id******C                              A******m    4********    *****m              ",
"               u*****'  d***@   ~***********&                              6*******m    w*******    ****5               ",
"               ~****n   q****y   ***********E                              D********m    w******   q****8               ",
"                k****m   i***B   t**********b                              _*********w    %****c   d***/                ",
"                 n***d    i**    t**********F                              #**********w    m**i   q***<                 ",
"                  n***g          h**********H                              +***********w    mn    d**<                  ",
"                   n***c        B***********}                              %************V        i**<                   ",
"                    n***'      f************                                *************m      i**<                    ",
"                     n****cf fc************7                                I*************m    i**<                     ",
"                      n*******************@                                  u*************m  i**<                      ",
"                       n******************T                                  R**************qn**<                       ",
"                        e******************~                                {******************<                        ",
"                         e******************~                              {******************<                         ",
"                          k***********ux*****~                            {*****tb***********6                          ",
"                           4b********7  >*****~                          {*****]  L********sM                           ",
"                             ^';brN}     >*****~                        {*****]     ckrs;=C                             ",
"                                          >*****~                      {*****]                                          ",
"                                           >*****~                    {*****]                                           ",
"                                            >*****~                  {*****]                                            ",
"                                             >*****~                {*****]                                             ",
"                                              >*****~              {*****]                                              ",
"                                               >*****~            {*****-                                               ",
"                                                >*****~          {*****-                                                ",
"                                                 >*****~        {*****-                                                 ",
"                                                  >*****~      {*****-                                                  ",
"                                                   >*****!    .*****-                                                   ",
"                                                    >*****,&&)*****-                                                    ",
"                                                     >************-                                                     ",
"                                                      -**********;                                                      ",
"                                                       &********=                                                       ",
"                                                         w$5_n.                                                         "};
